<?xml version="1.0" encoding="UTF-8" standalone="no"?>
<!DOCTYPE svg PUBLIC "-//W3C//DTD SVG 1.1//EN" "http://www.w3.org/Graphics/SVG/1.1/DTD/svg11.dtd">
<svg width="100%" height="100%" viewBox="0 0 128 128" version="1.1" xmlns="http://www.w3.org/2000/svg" xmlns:xlink="http://www.w3.org/1999/xlink" xml:space="preserve" xmlns:serif="http://www.serif.com/" style="fill-rule:evenodd;clip-rule:evenodd;stroke-linejoin:round;stroke-miterlimit:2;">
    <g transform="matrix(1,0,0,1,-19,-19)">
        <g id="_128" serif:id="128" transform="matrix(0.587156,0,0,0.592593,7.84404,7.14815)">
            <g transform="matrix(0.851562,0,0,0.84375,19,20)">
                <path d="M256,44.098L256,211.902C256,236.24 236.24,256 211.902,256L44.098,256C19.76,256 0,236.24 0,211.902L0,44.098C0,19.76 19.76,0 44.098,0L211.902,0C236.24,0 256,19.76 256,44.098Z" style="fill:rgb(230,126,25);"/>
            </g>
            <g transform="matrix(0.9375,0,0,0.9375,8.12881,7.0625)">
                <path d="M161,146.75C161,151.855 156.855,156 151.75,156L128,155.017L104.25,156C99.145,156 95,151.855 95,146.75C95,141.645 93.145,137.5 98.25,137.5L156.75,137.5C161.855,137.5 161,141.645 161,146.75Z" style="fill:rgb(255,126,25);"/>
                <path d="M161,146.75C161,151.855 156.855,156 151.75,156L128,155.017L104.25,156C99.145,156 95,151.855 95,146.75C95,141.645 93.145,137.5 98.25,137.5L156.75,137.5C161.855,137.5 161,141.645 161,146.75ZM99.39,142.056C99.481,143.35 99.598,145.299 99.598,146.75C99.598,149.301 101.627,151.398 104.172,151.443L127.808,150.465C127.936,150.46 128.064,150.46 128.192,150.465L151.85,151.443C154.382,151.389 156.402,149.296 156.402,146.75C156.402,145.251 156.365,143.154 156.344,142.056L99.39,142.056Z" style="fill:white;"/>
            </g>
            <g transform="matrix(1.08553,0,0,0.986842,-14.6179,12.4655)">
                <path d="M160,118.5C160,123.743 156.094,128 151.284,128L111.716,128C106.906,128 103,123.743 103,118.5C103,113.257 106.906,109 111.716,109L151.284,109C156.094,109 160,113.257 160,118.5Z" style="fill:rgb(255,126,25);"/>
                <path d="M160,118.5C160,123.743 156.094,128 151.284,128L111.716,128C106.906,128 103,123.743 103,118.5C103,113.257 106.906,109 111.716,109L151.284,109C156.094,109 160,113.257 160,118.5ZM155.587,118.5C155.587,115.911 153.659,113.809 151.284,113.809L111.716,113.809C109.341,113.809 107.413,115.911 107.413,118.5C107.413,121.089 109.341,123.191 111.716,123.191L151.284,123.191C153.659,123.191 155.587,121.089 155.587,118.5Z" style="fill:white;"/>
            </g>
            <g transform="matrix(0.9375,0,0,1.53409,8.12881,-58.8182)">
                <path d="M156.579,117.5L99.421,117.5C96.525,115.828 95,113.931 95,112C95,105.929 109.787,101 128,101C146.213,101 161,105.929 161,112C161,113.931 159.475,115.828 156.579,117.5Z" style="fill:rgb(230,126,25);"/>
                <path d="M156.579,117.5L99.421,117.5C96.525,115.828 95,113.931 95,112C95,105.929 109.787,101 128,101C146.213,101 161,105.929 161,112C161,113.931 159.475,115.828 156.579,117.5ZM154.587,114.715C155.735,113.859 156.402,112.95 156.402,112C156.402,110.369 154.559,108.955 151.868,107.732C146.493,105.288 137.779,103.784 128,103.784C118.221,103.784 109.507,105.288 104.132,107.732C101.441,108.955 99.598,110.369 99.598,112C99.598,112.95 100.265,113.859 101.413,114.716L154.587,114.715Z" style="fill:white;"/>
            </g>
            <g transform="matrix(0.46875,0,0,0.416667,70.0038,62.0104)">
                <ellipse cx="124" cy="101" rx="3.863" ry="4.5" style="fill:white;"/>
            </g>
            <g transform="matrix(0.46875,0,0,0.416667,78.4413,68.5729)">
                <ellipse cx="124" cy="101" rx="3.863" ry="4.5" style="fill:white;"/>
            </g>
            <g transform="matrix(0.46875,0,0,0.416667,61.5663,68.5729)">
                <ellipse cx="124" cy="101" rx="3.863" ry="4.5" style="fill:white;"/>
            </g>
            <g transform="matrix(-1.33403,-2.04671,1.86373,-0.956426,62.4742,523.524)">
                <path d="M132.5,77C143.262,77 152,100.749 152,130C152,159.251 143.262,183 132.5,183C121.738,183 113,159.251 113,130C113,100.749 121.738,77 132.5,77ZM132.847,81.256C129.492,81.256 126.679,84.628 124.164,89.64C119.553,98.83 116.633,113.688 116.633,130.406C116.633,147.009 119.495,161.754 124.074,170.881C126.418,175.551 129.028,178.744 132.153,178.744C135.508,178.744 138.321,175.372 140.836,170.36C145.447,161.17 148.367,146.312 148.367,129.594C148.367,112.991 145.505,98.246 140.926,89.119C138.582,84.449 135.972,81.256 132.847,81.256Z" style="fill:white;"/>
            </g>
            <g transform="matrix(2.66461,0,0,1.91038,-225.06,-120.349)">
                <path d="M132.5,77C143.262,77 152,100.749 152,130C152,159.251 143.262,183 132.5,183C121.738,183 113,159.251 113,130C113,100.749 121.738,77 132.5,77ZM132.5,81.612C129.164,81.612 126.23,84.875 123.729,89.86C119.189,98.907 116.337,113.542 116.337,130C116.337,146.458 119.189,161.093 123.729,170.14C126.23,175.125 129.164,178.388 132.5,178.388C135.836,178.388 138.77,175.125 141.271,170.14C145.811,161.093 148.663,146.458 148.663,130C148.663,113.542 145.811,98.907 141.271,89.86C138.77,84.875 135.836,81.612 132.5,81.612Z" style="fill:white;"/>
            </g>
            <g transform="matrix(-1.33284,2.04731,-1.86428,-0.955577,546.958,-19.0441)">
                <path d="M132.5,77C143.262,77 152,100.749 152,130C152,159.251 143.262,183 132.5,183C121.738,183 113,159.251 113,130C113,100.749 121.738,77 132.5,77ZM132.154,81.256C129.028,81.256 126.418,84.449 124.075,89.119C119.495,98.246 116.633,112.991 116.633,129.594C116.633,146.312 119.553,161.17 124.165,170.36C126.679,175.372 129.492,178.744 132.846,178.744C135.972,178.744 138.582,175.551 140.925,170.881C145.505,161.754 148.367,147.009 148.367,130.406C148.367,113.688 145.447,98.83 140.835,89.64C138.321,84.628 135.508,81.256 132.154,81.256Z" style="fill:white;"/>
            </g>
            <g transform="matrix(1.01271,0,0,0.9375,-2.44856,8)">
                <path d="M114,119L120.931,137.5L138.931,119L114,119Z" style="fill:white;"/>
            </g>
            <g transform="matrix(0.9375,0,0,0.9375,42.6875,-19.1875)">
                <circle cx="64" cy="66" r="10" style="fill:white;"/>
                <path d="M64,56C69.519,56 74,60.481 74,66C74,71.519 69.519,76 64,76C58.481,76 54,71.519 54,66C54,60.481 58.481,56 64,56ZM64,61.063C61.288,61.063 59.109,63.288 59.109,66C59.109,68.712 61.288,70.938 64,70.938C66.712,70.938 68.891,68.712 68.891,66C68.891,63.288 66.712,61.063 64,61.063Z" style="fill:white;"/>
            </g>
            <g transform="matrix(0.65625,0,0,0.65625,60.6875,-0.625)">
                <circle cx="64" cy="66" r="10" style="fill:white;"/>
                <path d="M64,56C69.519,56 74,60.481 74,66C74,71.519 69.519,76 64,76C58.481,76 54,71.519 54,66C54,60.481 58.481,56 64,56ZM64,63.232C62.491,63.232 61.299,64.491 61.299,66C61.299,67.509 62.491,68.768 64,68.768C65.509,68.768 66.701,67.509 66.701,66C66.701,64.491 65.509,63.232 64,63.232Z" style="fill:rgb(230,126,25);"/>
            </g>
            <g transform="matrix(0.9375,0,0,0.9375,21.7842,42.3945)">
                <circle cx="64" cy="66" r="10" style="fill:white;"/>
                <path d="M64,56C69.519,56 74,60.481 74,66C74,71.519 69.519,76 64,76C58.481,76 54,71.519 54,66C54,60.481 58.481,56 64,56ZM64,61.062C61.288,61.062 59.109,63.288 59.109,66C59.109,68.712 61.288,70.937 64,70.937C66.712,70.937 68.891,68.712 68.891,66C68.891,63.288 66.712,61.062 64,61.062Z" style="fill:white;"/>
            </g>
            <g transform="matrix(0.65625,0,0,0.65625,39.7842,60.957)">
                <circle cx="64" cy="66" r="10" style="fill:white;"/>
                <path d="M64,56C69.519,56 74,60.481 74,66C74,71.519 69.519,76 64,76C58.481,76 54,71.519 54,66C54,60.481 58.481,56 64,56ZM64,63.232C62.491,63.232 61.299,64.491 61.299,66C61.299,67.509 62.491,68.768 64,68.768C65.509,68.768 66.701,67.509 66.701,66C66.701,64.491 65.509,63.232 64,63.232Z" style="fill:rgb(230,126,25);"/>
            </g>
        </g>
    </g>
</svg>
